<mxfile host="app.diagrams.net" agent="Mozilla/5.0 (Windows NT 10.0; Win64; x64) AppleWebKit/537.36 (KHTML, like Gecko) Chrome/130.0.0.0 Safari/537.36" version="24.8.3">
  <diagram name="Page-1" id="NmMEz5smj91MNbEaXR0_">
    <mxGraphModel grid="1" page="1" gridSize="10" guides="1" tooltips="1" connect="1" arrows="1" fold="1" pageScale="1" pageWidth="850" pageHeight="1100" math="0" shadow="0">
      <root>
        <mxCell id="0" />
        <mxCell id="1" parent="0" />
        <mxCell id="jpbXnLcmVWf9Eb9YlFMm-5" value="" style="edgeStyle=orthogonalEdgeStyle;rounded=0;orthogonalLoop=1;jettySize=auto;html=1;labelBackgroundColor=none;fontColor=default;" edge="1" parent="1" source="jpbXnLcmVWf9Eb9YlFMm-3" target="jpbXnLcmVWf9Eb9YlFMm-4">
          <mxGeometry relative="1" as="geometry" />
        </mxCell>
        <mxCell id="jpbXnLcmVWf9Eb9YlFMm-3" value="START" style="strokeWidth=2;html=1;shape=mxgraph.flowchart.start_1;whiteSpace=wrap;rounded=0;labelBackgroundColor=none;" vertex="1" parent="1">
          <mxGeometry x="375" y="40" width="100" height="60" as="geometry" />
        </mxCell>
        <mxCell id="jpbXnLcmVWf9Eb9YlFMm-7" value="" style="edgeStyle=orthogonalEdgeStyle;rounded=0;orthogonalLoop=1;jettySize=auto;html=1;labelBackgroundColor=none;fontColor=default;" edge="1" parent="1" source="jpbXnLcmVWf9Eb9YlFMm-4" target="jpbXnLcmVWf9Eb9YlFMm-6">
          <mxGeometry relative="1" as="geometry" />
        </mxCell>
        <mxCell id="jpbXnLcmVWf9Eb9YlFMm-4" value="import tkinter, messagebox and random&amp;nbsp;" style="whiteSpace=wrap;html=1;strokeWidth=2;rounded=0;labelBackgroundColor=none;" vertex="1" parent="1">
          <mxGeometry x="365" y="160" width="120" height="60" as="geometry" />
        </mxCell>
        <mxCell id="jpbXnLcmVWf9Eb9YlFMm-32" value="" style="edgeStyle=orthogonalEdgeStyle;rounded=0;orthogonalLoop=1;jettySize=auto;html=1;labelBackgroundColor=none;fontColor=default;" edge="1" parent="1" source="jpbXnLcmVWf9Eb9YlFMm-6" target="jpbXnLcmVWf9Eb9YlFMm-31">
          <mxGeometry relative="1" as="geometry" />
        </mxCell>
        <mxCell id="jpbXnLcmVWf9Eb9YlFMm-6" value="generate random city demand between 2 chosen values" style="whiteSpace=wrap;html=1;strokeWidth=2;rounded=0;labelBackgroundColor=none;" vertex="1" parent="1">
          <mxGeometry x="365" y="280" width="120" height="60" as="geometry" />
        </mxCell>
        <mxCell id="jpbXnLcmVWf9Eb9YlFMm-12" value="" style="edgeStyle=orthogonalEdgeStyle;rounded=0;orthogonalLoop=1;jettySize=auto;html=1;labelBackgroundColor=none;fontColor=default;" edge="1" parent="1" source="jpbXnLcmVWf9Eb9YlFMm-9" target="jpbXnLcmVWf9Eb9YlFMm-11">
          <mxGeometry relative="1" as="geometry" />
        </mxCell>
        <mxCell id="jpbXnLcmVWf9Eb9YlFMm-29" value="" style="edgeStyle=orthogonalEdgeStyle;rounded=0;orthogonalLoop=1;jettySize=auto;html=1;labelBackgroundColor=none;fontColor=default;" edge="1" parent="1" source="jpbXnLcmVWf9Eb9YlFMm-9" target="jpbXnLcmVWf9Eb9YlFMm-11">
          <mxGeometry relative="1" as="geometry" />
        </mxCell>
        <mxCell id="jpbXnLcmVWf9Eb9YlFMm-9" value="create dictionary for energy sources" style="whiteSpace=wrap;html=1;strokeWidth=2;movable=1;resizable=1;rotatable=1;deletable=1;editable=1;locked=0;connectable=1;rounded=0;labelBackgroundColor=none;" vertex="1" parent="1">
          <mxGeometry x="365.5" y="520" width="120" height="60" as="geometry" />
        </mxCell>
        <mxCell id="jpbXnLcmVWf9Eb9YlFMm-20" value="" style="edgeStyle=orthogonalEdgeStyle;rounded=0;orthogonalLoop=1;jettySize=auto;html=1;labelBackgroundColor=none;fontColor=default;" edge="1" parent="1" source="jpbXnLcmVWf9Eb9YlFMm-11" target="jpbXnLcmVWf9Eb9YlFMm-19">
          <mxGeometry relative="1" as="geometry" />
        </mxCell>
        <mxCell id="jpbXnLcmVWf9Eb9YlFMm-22" value="" style="edgeStyle=orthogonalEdgeStyle;rounded=0;orthogonalLoop=1;jettySize=auto;html=1;labelBackgroundColor=none;fontColor=default;" edge="1" parent="1" source="jpbXnLcmVWf9Eb9YlFMm-19" target="jpbXnLcmVWf9Eb9YlFMm-21">
          <mxGeometry relative="1" as="geometry" />
        </mxCell>
        <mxCell id="2EE5asKb9-AhzfVLfmkp-2" value="" style="edgeStyle=orthogonalEdgeStyle;rounded=0;orthogonalLoop=1;jettySize=auto;html=1;labelBackgroundColor=none;fontColor=default;" edge="1" parent="1" source="jpbXnLcmVWf9Eb9YlFMm-19" target="2EE5asKb9-AhzfVLfmkp-1">
          <mxGeometry relative="1" as="geometry" />
        </mxCell>
        <mxCell id="jpbXnLcmVWf9Eb9YlFMm-19" value="add and remove energy from sources" style="shape=parallelogram;perimeter=parallelogramPerimeter;whiteSpace=wrap;html=1;fixedSize=1;strokeWidth=2;rounded=0;labelBackgroundColor=none;" vertex="1" parent="1">
          <mxGeometry x="333" y="760" width="185" height="60" as="geometry" />
        </mxCell>
        <mxCell id="jpbXnLcmVWf9Eb9YlFMm-23" value="" style="endArrow=none;html=1;rounded=0;labelBackgroundColor=none;fontColor=default;" edge="1" parent="1" source="jpbXnLcmVWf9Eb9YlFMm-21">
          <mxGeometry width="50" height="50" relative="1" as="geometry">
            <mxPoint x="690" y="770" as="sourcePoint" />
            <mxPoint x="690" y="720" as="targetPoint" />
          </mxGeometry>
        </mxCell>
        <mxCell id="jpbXnLcmVWf9Eb9YlFMm-33" value="" style="edgeStyle=orthogonalEdgeStyle;rounded=0;orthogonalLoop=1;jettySize=auto;html=1;labelBackgroundColor=none;fontColor=default;" edge="1" parent="1" source="jpbXnLcmVWf9Eb9YlFMm-31" target="jpbXnLcmVWf9Eb9YlFMm-9">
          <mxGeometry relative="1" as="geometry" />
        </mxCell>
        <mxCell id="jpbXnLcmVWf9Eb9YlFMm-31" value="create a class" style="whiteSpace=wrap;html=1;strokeWidth=2;rounded=0;labelBackgroundColor=none;" vertex="1" parent="1">
          <mxGeometry x="365.5" y="400" width="120" height="60" as="geometry" />
        </mxCell>
        <mxCell id="jpbXnLcmVWf9Eb9YlFMm-35" value="" style="endArrow=classic;html=1;rounded=0;labelBackgroundColor=none;fontColor=default;" edge="1" parent="1">
          <mxGeometry width="50" height="50" relative="1" as="geometry">
            <mxPoint x="690" y="720" as="sourcePoint" />
            <mxPoint x="430" y="720" as="targetPoint" />
          </mxGeometry>
        </mxCell>
        <mxCell id="jpbXnLcmVWf9Eb9YlFMm-11" value="set total energy and sources at 0.0 MW" style="whiteSpace=wrap;html=1;strokeWidth=2;rounded=0;labelBackgroundColor=none;" vertex="1" parent="1">
          <mxGeometry x="365" y="640" width="120" height="60" as="geometry" />
        </mxCell>
        <mxCell id="jpbXnLcmVWf9Eb9YlFMm-36" value="" style="endArrow=none;html=1;rounded=0;labelBackgroundColor=none;fontColor=default;" edge="1" parent="1" target="jpbXnLcmVWf9Eb9YlFMm-21">
          <mxGeometry width="50" height="50" relative="1" as="geometry">
            <mxPoint x="690" y="770" as="sourcePoint" />
            <mxPoint x="690" y="720" as="targetPoint" />
          </mxGeometry>
        </mxCell>
        <mxCell id="jpbXnLcmVWf9Eb9YlFMm-21" value="recalculate total energy" style="whiteSpace=wrap;html=1;strokeWidth=2;rounded=0;labelBackgroundColor=none;" vertex="1" parent="1">
          <mxGeometry x="630" y="760" width="120" height="60" as="geometry" />
        </mxCell>
        <mxCell id="Ap1rKkLuWlFSL0MGlEdP-45" value="" style="edgeStyle=orthogonalEdgeStyle;rounded=0;orthogonalLoop=1;jettySize=auto;html=1;labelBackgroundColor=none;fontColor=default;" edge="1" parent="1" source="2EE5asKb9-AhzfVLfmkp-1" target="Ap1rKkLuWlFSL0MGlEdP-44">
          <mxGeometry relative="1" as="geometry" />
        </mxCell>
        <mxCell id="2EE5asKb9-AhzfVLfmkp-1" value="create instance for energy variables and initialise total energy variable" style="whiteSpace=wrap;html=1;strokeWidth=2;rounded=0;labelBackgroundColor=none;" vertex="1" parent="1">
          <mxGeometry x="347" y="880" width="155.5" height="70" as="geometry" />
        </mxCell>
        <mxCell id="Ap1rKkLuWlFSL0MGlEdP-8" value="" style="edgeStyle=orthogonalEdgeStyle;rounded=0;orthogonalLoop=1;jettySize=auto;html=1;labelBackgroundColor=none;fontColor=default;" edge="1" parent="1" target="Ap1rKkLuWlFSL0MGlEdP-7">
          <mxGeometry relative="1" as="geometry">
            <mxPoint x="425.5999999999999" y="1220" as="sourcePoint" />
          </mxGeometry>
        </mxCell>
        <mxCell id="Ap1rKkLuWlFSL0MGlEdP-5" value="" style="endArrow=none;html=1;rounded=0;labelBackgroundColor=none;fontColor=default;" edge="1" parent="1">
          <mxGeometry width="50" height="50" relative="1" as="geometry">
            <mxPoint x="700" y="1147.5" as="sourcePoint" />
            <mxPoint x="700" y="1100" as="targetPoint" />
          </mxGeometry>
        </mxCell>
        <mxCell id="Ap1rKkLuWlFSL0MGlEdP-6" value="" style="endArrow=classic;html=1;rounded=0;labelBackgroundColor=none;fontColor=default;" edge="1" parent="1">
          <mxGeometry width="50" height="50" relative="1" as="geometry">
            <mxPoint x="700" y="1100" as="sourcePoint" />
            <mxPoint x="425" y="1100" as="targetPoint" />
          </mxGeometry>
        </mxCell>
        <mxCell id="Ap1rKkLuWlFSL0MGlEdP-15" value="" style="edgeStyle=orthogonalEdgeStyle;rounded=0;orthogonalLoop=1;jettySize=auto;html=1;labelBackgroundColor=none;fontColor=default;" edge="1" parent="1" source="Ap1rKkLuWlFSL0MGlEdP-7" target="Ap1rKkLuWlFSL0MGlEdP-42">
          <mxGeometry relative="1" as="geometry">
            <mxPoint x="424.8000000000002" y="1450" as="targetPoint" />
          </mxGeometry>
        </mxCell>
        <mxCell id="Ap1rKkLuWlFSL0MGlEdP-113" value="" style="edgeStyle=orthogonalEdgeStyle;rounded=0;orthogonalLoop=1;jettySize=auto;html=1;" edge="1" parent="1" source="Ap1rKkLuWlFSL0MGlEdP-7" target="Ap1rKkLuWlFSL0MGlEdP-112">
          <mxGeometry relative="1" as="geometry">
            <Array as="points">
              <mxPoint x="280" y="1310" />
              <mxPoint x="280" y="1310" />
            </Array>
          </mxGeometry>
        </mxCell>
        <mxCell id="Ap1rKkLuWlFSL0MGlEdP-7" value="otherwise, inform the user of the amount added to source whilst checking for city demand&amp;nbsp;" style="whiteSpace=wrap;html=1;strokeWidth=2;rounded=0;labelBackgroundColor=none;" vertex="1" parent="1">
          <mxGeometry x="321.15999999999997" y="1290" width="210" height="90" as="geometry" />
        </mxCell>
        <mxCell id="Ap1rKkLuWlFSL0MGlEdP-13" value="" style="endArrow=classic;html=1;rounded=0;labelBackgroundColor=none;fontColor=default;" edge="1" parent="1">
          <mxGeometry width="50" height="50" relative="1" as="geometry">
            <mxPoint x="120" y="1100" as="sourcePoint" />
            <mxPoint x="425" y="1100" as="targetPoint" />
          </mxGeometry>
        </mxCell>
        <mxCell id="Ap1rKkLuWlFSL0MGlEdP-17" value="" style="endArrow=none;html=1;rounded=0;labelBackgroundColor=none;fontColor=default;" edge="1" parent="1">
          <mxGeometry width="50" height="50" relative="1" as="geometry">
            <mxPoint x="120" y="1280" as="sourcePoint" />
            <mxPoint x="120" y="1100" as="targetPoint" />
          </mxGeometry>
        </mxCell>
        <mxCell id="Ap1rKkLuWlFSL0MGlEdP-23" value="" style="endArrow=classic;html=1;rounded=0;labelBackgroundColor=none;fontColor=default;" edge="1" parent="1">
          <mxGeometry width="50" height="50" relative="1" as="geometry">
            <mxPoint x="695" y="1560" as="sourcePoint" />
            <mxPoint x="425" y="1560" as="targetPoint" />
          </mxGeometry>
        </mxCell>
        <mxCell id="Ap1rKkLuWlFSL0MGlEdP-24" value="" style="endArrow=none;html=1;rounded=0;labelBackgroundColor=none;fontColor=default;" edge="1" parent="1">
          <mxGeometry width="50" height="50" relative="1" as="geometry">
            <mxPoint x="695.7634482758622" y="1595" as="sourcePoint" />
            <mxPoint x="696" y="1560" as="targetPoint" />
          </mxGeometry>
        </mxCell>
        <mxCell id="Ap1rKkLuWlFSL0MGlEdP-28" value="" style="edgeStyle=orthogonalEdgeStyle;rounded=0;orthogonalLoop=1;jettySize=auto;html=1;labelBackgroundColor=none;fontColor=default;" edge="1" parent="1" source="Ap1rKkLuWlFSL0MGlEdP-25" target="Ap1rKkLuWlFSL0MGlEdP-27">
          <mxGeometry relative="1" as="geometry">
            <Array as="points">
              <mxPoint x="150" y="1700" />
              <mxPoint x="150" y="1700" />
            </Array>
          </mxGeometry>
        </mxCell>
        <mxCell id="Ap1rKkLuWlFSL0MGlEdP-25" value="if users tries to remove more&lt;div&gt;&amp;nbsp;energy than the amount available&lt;/div&gt;" style="shape=parallelogram;perimeter=parallelogramPerimeter;whiteSpace=wrap;html=1;fixedSize=1;strokeWidth=2;rounded=0;labelBackgroundColor=none;" vertex="1" parent="1">
          <mxGeometry x="40" y="1597.5" width="215.94" height="70" as="geometry" />
        </mxCell>
        <mxCell id="Ap1rKkLuWlFSL0MGlEdP-27" value="inform the user there isn&#39;t enough energy to be removed" style="whiteSpace=wrap;html=1;strokeWidth=2;rounded=0;labelBackgroundColor=none;" vertex="1" parent="1">
          <mxGeometry x="74.49" y="1730" width="166.96" height="60" as="geometry" />
        </mxCell>
        <mxCell id="Ap1rKkLuWlFSL0MGlEdP-35" value="" style="edgeStyle=orthogonalEdgeStyle;rounded=0;orthogonalLoop=1;jettySize=auto;html=1;labelBackgroundColor=none;fontColor=default;" edge="1" parent="1" source="Ap1rKkLuWlFSL0MGlEdP-29" target="Ap1rKkLuWlFSL0MGlEdP-34">
          <mxGeometry relative="1" as="geometry" />
        </mxCell>
        <mxCell id="Ap1rKkLuWlFSL0MGlEdP-29" value="otherwise, remove energy, update total energy" style="whiteSpace=wrap;html=1;strokeWidth=2;rounded=0;labelBackgroundColor=none;" vertex="1" parent="1">
          <mxGeometry x="347.25" y="1730" width="155.25" height="65" as="geometry" />
        </mxCell>
        <mxCell id="Ap1rKkLuWlFSL0MGlEdP-31" value="" style="endArrow=none;html=1;rounded=0;entryX=0;entryY=0.5;entryDx=0;entryDy=0;labelBackgroundColor=none;fontColor=default;" edge="1" parent="1" target="Ap1rKkLuWlFSL0MGlEdP-27">
          <mxGeometry width="50" height="50" relative="1" as="geometry">
            <mxPoint x="40" y="1760" as="sourcePoint" />
            <mxPoint x="40" y="1760" as="targetPoint" />
          </mxGeometry>
        </mxCell>
        <mxCell id="Ap1rKkLuWlFSL0MGlEdP-32" value="" style="endArrow=none;html=1;rounded=0;labelBackgroundColor=none;fontColor=default;" edge="1" parent="1">
          <mxGeometry width="50" height="50" relative="1" as="geometry">
            <mxPoint x="40" y="1760" as="sourcePoint" />
            <mxPoint x="40" y="1560" as="targetPoint" />
          </mxGeometry>
        </mxCell>
        <mxCell id="Ap1rKkLuWlFSL0MGlEdP-33" value="" style="endArrow=classic;html=1;rounded=0;labelBackgroundColor=none;fontColor=default;" edge="1" parent="1">
          <mxGeometry width="50" height="50" relative="1" as="geometry">
            <mxPoint x="40" y="1560" as="sourcePoint" />
            <mxPoint x="420" y="1560" as="targetPoint" />
          </mxGeometry>
        </mxCell>
        <mxCell id="Ap1rKkLuWlFSL0MGlEdP-37" value="" style="edgeStyle=orthogonalEdgeStyle;rounded=0;orthogonalLoop=1;jettySize=auto;html=1;labelBackgroundColor=none;fontColor=default;" edge="1" parent="1" source="Ap1rKkLuWlFSL0MGlEdP-34">
          <mxGeometry relative="1" as="geometry">
            <mxPoint x="600.3800000000001" y="1890.6999999999998" as="targetPoint" />
          </mxGeometry>
        </mxCell>
        <mxCell id="Ap1rKkLuWlFSL0MGlEdP-47" value="" style="edgeStyle=orthogonalEdgeStyle;rounded=0;orthogonalLoop=1;jettySize=auto;html=1;labelBackgroundColor=none;fontColor=default;" edge="1" parent="1" source="Ap1rKkLuWlFSL0MGlEdP-34" target="Ap1rKkLuWlFSL0MGlEdP-46">
          <mxGeometry relative="1" as="geometry" />
        </mxCell>
        <mxCell id="Ap1rKkLuWlFSL0MGlEdP-34" value="inform the user how much amount has been added to each source" style="whiteSpace=wrap;html=1;strokeWidth=2;rounded=0;labelBackgroundColor=none;" vertex="1" parent="1">
          <mxGeometry x="348.64" y="1860" width="154.49" height="62.5" as="geometry" />
        </mxCell>
        <mxCell id="Ap1rKkLuWlFSL0MGlEdP-38" value="if user enters invalid input ensure they input a number" style="whiteSpace=wrap;html=1;strokeWidth=2;rounded=0;labelBackgroundColor=none;" vertex="1" parent="1">
          <mxGeometry x="600" y="1860" width="150" height="80" as="geometry" />
        </mxCell>
        <mxCell id="Ap1rKkLuWlFSL0MGlEdP-39" value="" style="endArrow=none;html=1;rounded=0;labelBackgroundColor=none;fontColor=default;" edge="1" parent="1">
          <mxGeometry width="50" height="50" relative="1" as="geometry">
            <mxPoint x="680.51" y="1860" as="sourcePoint" />
            <mxPoint x="681" y="1820" as="targetPoint" />
          </mxGeometry>
        </mxCell>
        <mxCell id="Ap1rKkLuWlFSL0MGlEdP-40" value="" style="endArrow=classic;html=1;rounded=0;labelBackgroundColor=none;fontColor=default;" edge="1" parent="1">
          <mxGeometry width="50" height="50" relative="1" as="geometry">
            <mxPoint x="680.51" y="1820" as="sourcePoint" />
            <mxPoint x="430" y="1820" as="targetPoint" />
          </mxGeometry>
        </mxCell>
        <mxCell id="Ap1rKkLuWlFSL0MGlEdP-94" value="" style="edgeStyle=orthogonalEdgeStyle;orthogonalLoop=1;jettySize=auto;html=1;rounded=0;labelBackgroundColor=none;fontColor=default;" edge="1" parent="1" source="Ap1rKkLuWlFSL0MGlEdP-42" target="Ap1rKkLuWlFSL0MGlEdP-93">
          <mxGeometry relative="1" as="geometry" />
        </mxCell>
        <mxCell id="Ap1rKkLuWlFSL0MGlEdP-42" value="&#xa;&lt;span style=&quot;color: rgb(0, 0, 0); font-family: Helvetica; font-size: 12px; font-style: normal; font-variant-ligatures: normal; font-variant-caps: normal; font-weight: 400; letter-spacing: normal; orphans: 2; text-align: center; text-indent: 0px; text-transform: none; widows: 2; word-spacing: 0px; -webkit-text-stroke-width: 0px; white-space: normal; background-color: rgb(251, 251, 251); text-decoration-thickness: initial; text-decoration-style: initial; text-decoration-color: initial; display: inline !important; float: none;&quot;&gt;define the removal of energy by getting the user&#39;s choice&lt;/span&gt;&#xa;&#xa;" style="shape=parallelogram;perimeter=parallelogramPerimeter;whiteSpace=wrap;html=1;fixedSize=1;strokeWidth=2;rounded=0;labelBackgroundColor=none;" vertex="1" parent="1">
          <mxGeometry x="323.87" y="1450" width="203.26" height="80" as="geometry" />
        </mxCell>
        <mxCell id="Ap1rKkLuWlFSL0MGlEdP-108" value="" style="edgeStyle=orthogonalEdgeStyle;rounded=0;orthogonalLoop=1;jettySize=auto;html=1;" edge="1" parent="1" source="Ap1rKkLuWlFSL0MGlEdP-44" target="Ap1rKkLuWlFSL0MGlEdP-107">
          <mxGeometry relative="1" as="geometry" />
        </mxCell>
        <mxCell id="Ap1rKkLuWlFSL0MGlEdP-44" value="&lt;span style=&quot;color: rgb(0, 0, 0); font-family: Helvetica; font-size: 12px; font-style: normal; font-variant-ligatures: normal; font-variant-caps: normal; font-weight: 400; letter-spacing: normal; orphans: 2; text-align: center; text-indent: 0px; text-transform: none; widows: 2; word-spacing: 0px; -webkit-text-stroke-width: 0px; white-space: normal; background-color: rgb(251, 251, 251); text-decoration-thickness: initial; text-decoration-style: initial; text-decoration-color: initial; display: inline !important; float: none;&quot;&gt;define addition by getting&lt;/span&gt;&lt;div&gt;&lt;span style=&quot;color: rgb(0, 0, 0); font-family: Helvetica; font-size: 12px; font-style: normal; font-variant-ligatures: normal; font-variant-caps: normal; font-weight: 400; letter-spacing: normal; orphans: 2; text-align: center; text-indent: 0px; text-transform: none; widows: 2; word-spacing: 0px; -webkit-text-stroke-width: 0px; white-space: normal; background-color: rgb(251, 251, 251); text-decoration-thickness: initial; text-decoration-style: initial; text-decoration-color: initial; display: inline !important; float: none;&quot;&gt;&amp;nbsp;the source from the users&#39; choice&lt;/span&gt;&lt;/div&gt;" style="shape=parallelogram;perimeter=parallelogramPerimeter;whiteSpace=wrap;html=1;fixedSize=1;strokeWidth=2;rounded=0;labelBackgroundColor=none;" vertex="1" parent="1">
          <mxGeometry x="321.22" y="1010" width="207.07" height="80" as="geometry" />
        </mxCell>
        <mxCell id="Ap1rKkLuWlFSL0MGlEdP-49" value="" style="edgeStyle=orthogonalEdgeStyle;rounded=0;orthogonalLoop=1;jettySize=auto;html=1;labelBackgroundColor=none;fontColor=default;" edge="1" parent="1" source="Ap1rKkLuWlFSL0MGlEdP-46" target="Ap1rKkLuWlFSL0MGlEdP-48">
          <mxGeometry relative="1" as="geometry" />
        </mxCell>
        <mxCell id="Ap1rKkLuWlFSL0MGlEdP-46" value="update the total energy and display it for the user" style="whiteSpace=wrap;html=1;strokeWidth=2;rounded=0;labelBackgroundColor=none;" vertex="1" parent="1">
          <mxGeometry x="349.01" y="1990" width="154.12" height="76.25" as="geometry" />
        </mxCell>
        <mxCell id="Ap1rKkLuWlFSL0MGlEdP-51" value="" style="edgeStyle=orthogonalEdgeStyle;rounded=0;orthogonalLoop=1;jettySize=auto;html=1;labelBackgroundColor=none;fontColor=default;" edge="1" parent="1" source="Ap1rKkLuWlFSL0MGlEdP-48" target="Ap1rKkLuWlFSL0MGlEdP-50">
          <mxGeometry relative="1" as="geometry" />
        </mxCell>
        <mxCell id="Ap1rKkLuWlFSL0MGlEdP-48" value="update global energy&amp;nbsp;" style="whiteSpace=wrap;html=1;strokeWidth=2;rounded=0;labelBackgroundColor=none;" vertex="1" parent="1">
          <mxGeometry x="352.46000000000004" y="2130" width="146.07" height="69.99" as="geometry" />
        </mxCell>
        <mxCell id="Ap1rKkLuWlFSL0MGlEdP-56" value="" style="edgeStyle=orthogonalEdgeStyle;rounded=0;orthogonalLoop=1;jettySize=auto;html=1;labelBackgroundColor=none;fontColor=default;" edge="1" parent="1" source="Ap1rKkLuWlFSL0MGlEdP-50" target="Ap1rKkLuWlFSL0MGlEdP-55">
          <mxGeometry relative="1" as="geometry" />
        </mxCell>
        <mxCell id="Ap1rKkLuWlFSL0MGlEdP-50" value="create a total label configuration" style="whiteSpace=wrap;html=1;strokeWidth=2;rounded=0;labelBackgroundColor=none;" vertex="1" parent="1">
          <mxGeometry x="344.10999999999996" y="2260" width="163.93" height="75.63" as="geometry" />
        </mxCell>
        <mxCell id="Ap1rKkLuWlFSL0MGlEdP-58" value="" style="edgeStyle=orthogonalEdgeStyle;rounded=0;orthogonalLoop=1;jettySize=auto;html=1;labelBackgroundColor=none;fontColor=default;" edge="1" parent="1" source="Ap1rKkLuWlFSL0MGlEdP-55" target="Ap1rKkLuWlFSL0MGlEdP-57">
          <mxGeometry relative="1" as="geometry" />
        </mxCell>
        <mxCell id="Ap1rKkLuWlFSL0MGlEdP-55" value="create labels for all energy sources to display their energy" style="whiteSpace=wrap;html=1;strokeWidth=2;rounded=0;labelBackgroundColor=none;" vertex="1" parent="1">
          <mxGeometry x="349.2" y="2390" width="153.93" height="76.55" as="geometry" />
        </mxCell>
        <mxCell id="Ap1rKkLuWlFSL0MGlEdP-87" value="" style="edgeStyle=orthogonalEdgeStyle;rounded=0;orthogonalLoop=1;jettySize=auto;html=1;labelBackgroundColor=none;fontColor=default;" edge="1" parent="1" source="Ap1rKkLuWlFSL0MGlEdP-57" target="Ap1rKkLuWlFSL0MGlEdP-86">
          <mxGeometry relative="1" as="geometry" />
        </mxCell>
        <mxCell id="Ap1rKkLuWlFSL0MGlEdP-57" value="check the energy vs demand for energy" style="whiteSpace=wrap;html=1;strokeWidth=2;rounded=0;labelBackgroundColor=none;" vertex="1" parent="1">
          <mxGeometry x="347" y="2520" width="160" height="80" as="geometry" />
        </mxCell>
        <mxCell id="Ap1rKkLuWlFSL0MGlEdP-81" value="" style="edgeStyle=orthogonalEdgeStyle;rounded=0;orthogonalLoop=1;jettySize=auto;html=1;labelBackgroundColor=none;fontColor=default;" edge="1" parent="1" target="Ap1rKkLuWlFSL0MGlEdP-80">
          <mxGeometry relative="1" as="geometry">
            <mxPoint x="426.0999999999999" y="2870" as="sourcePoint" />
          </mxGeometry>
        </mxCell>
        <mxCell id="Ap1rKkLuWlFSL0MGlEdP-73" value="otherwise, inform user energy&lt;div&gt;does not meet demand&lt;/div&gt;&lt;div&gt;and shortfall&lt;/div&gt;" style="shape=parallelogram;perimeter=parallelogramPerimeter;whiteSpace=wrap;html=1;fixedSize=1;strokeWidth=2;rounded=0;labelBackgroundColor=none;" vertex="1" parent="1">
          <mxGeometry x="590.97" y="2813.75" width="200.05" height="85" as="geometry" />
        </mxCell>
        <mxCell id="Ap1rKkLuWlFSL0MGlEdP-77" value="" style="endArrow=none;html=1;rounded=0;exitX=0.558;exitY=0.038;exitDx=0;exitDy=0;exitPerimeter=0;labelBackgroundColor=none;fontColor=default;" edge="1" parent="1" source="Ap1rKkLuWlFSL0MGlEdP-73">
          <mxGeometry width="50" height="50" relative="1" as="geometry">
            <mxPoint x="700" y="2787.5" as="sourcePoint" />
            <mxPoint x="700" y="2620" as="targetPoint" />
            <Array as="points" />
          </mxGeometry>
        </mxCell>
        <mxCell id="Ap1rKkLuWlFSL0MGlEdP-78" value="" style="endArrow=classic;html=1;rounded=0;labelBackgroundColor=none;fontColor=default;" edge="1" parent="1">
          <mxGeometry width="50" height="50" relative="1" as="geometry">
            <mxPoint x="700" y="2620" as="sourcePoint" />
            <mxPoint x="430" y="2620" as="targetPoint" />
          </mxGeometry>
        </mxCell>
        <mxCell id="Ap1rKkLuWlFSL0MGlEdP-115" value="" style="edgeStyle=orthogonalEdgeStyle;rounded=0;orthogonalLoop=1;jettySize=auto;html=1;" edge="1" parent="1" source="Ap1rKkLuWlFSL0MGlEdP-80" target="Ap1rKkLuWlFSL0MGlEdP-114">
          <mxGeometry relative="1" as="geometry" />
        </mxCell>
        <mxCell id="Ap1rKkLuWlFSL0MGlEdP-80" value="create the demand label and display it to user" style="whiteSpace=wrap;html=1;strokeWidth=2;rounded=0;labelBackgroundColor=none;" vertex="1" parent="1">
          <mxGeometry x="344.37999999999994" y="2950" width="165.25" height="70" as="geometry" />
        </mxCell>
        <mxCell id="Ap1rKkLuWlFSL0MGlEdP-85" value="" style="edgeStyle=orthogonalEdgeStyle;rounded=0;orthogonalLoop=1;jettySize=auto;html=1;labelBackgroundColor=none;fontColor=default;" edge="1" parent="1" source="Ap1rKkLuWlFSL0MGlEdP-83" target="Ap1rKkLuWlFSL0MGlEdP-73">
          <mxGeometry relative="1" as="geometry" />
        </mxCell>
        <mxCell id="Ap1rKkLuWlFSL0MGlEdP-83" value="&lt;span style=&quot;color: rgb(0, 0, 0); font-family: Helvetica; font-size: 12px; font-style: normal; font-variant-ligatures: normal; font-variant-caps: normal; font-weight: 400; letter-spacing: normal; orphans: 2; text-align: center; text-indent: 0px; text-transform: none; widows: 2; word-spacing: 0px; -webkit-text-stroke-width: 0px; white-space: normal; background-color: rgb(251, 251, 251); text-decoration-thickness: initial; text-decoration-style: initial; text-decoration-color: initial; display: inline !important; float: none;&quot;&gt;inform user the energy&lt;/span&gt;&lt;div&gt;&lt;span style=&quot;color: rgb(0, 0, 0); font-family: Helvetica; font-size: 12px; font-style: normal; font-variant-ligatures: normal; font-variant-caps: normal; font-weight: 400; letter-spacing: normal; orphans: 2; text-align: center; text-indent: 0px; text-transform: none; widows: 2; word-spacing: 0px; -webkit-text-stroke-width: 0px; white-space: normal; background-color: rgb(251, 251, 251); text-decoration-thickness: initial; text-decoration-style: initial; text-decoration-color: initial; display: inline !important; float: none;&quot;&gt;meets demand and the&amp;nbsp;&lt;/span&gt;&lt;/div&gt;&lt;div&gt;&lt;span style=&quot;color: rgb(0, 0, 0); font-family: Helvetica; font-size: 12px; font-style: normal; font-variant-ligatures: normal; font-variant-caps: normal; font-weight: 400; letter-spacing: normal; orphans: 2; text-align: center; text-indent: 0px; text-transform: none; widows: 2; word-spacing: 0px; -webkit-text-stroke-width: 0px; white-space: normal; background-color: rgb(251, 251, 251); text-decoration-thickness: initial; text-decoration-style: initial; text-decoration-color: initial; display: inline !important; float: none;&quot;&gt;amount of exceeding&lt;/span&gt;&lt;/div&gt;&lt;div&gt;&lt;span style=&quot;color: rgb(0, 0, 0); font-family: Helvetica; font-size: 12px; font-style: normal; font-variant-ligatures: normal; font-variant-caps: normal; font-weight: 400; letter-spacing: normal; orphans: 2; text-align: center; text-indent: 0px; text-transform: none; widows: 2; word-spacing: 0px; -webkit-text-stroke-width: 0px; white-space: normal; background-color: rgb(251, 251, 251); text-decoration-thickness: initial; text-decoration-style: initial; text-decoration-color: initial; display: inline !important; float: none;&quot;&gt;energy&lt;/span&gt;&lt;br&gt;&lt;/div&gt;" style="shape=parallelogram;perimeter=parallelogramPerimeter;whiteSpace=wrap;html=1;fixedSize=1;strokeWidth=2;rounded=0;labelBackgroundColor=none;" vertex="1" parent="1">
          <mxGeometry x="338" y="2820" width="178" height="72.5" as="geometry" />
        </mxCell>
        <mxCell id="Ap1rKkLuWlFSL0MGlEdP-88" value="" style="edgeStyle=orthogonalEdgeStyle;rounded=0;orthogonalLoop=1;jettySize=auto;html=1;labelBackgroundColor=none;fontColor=default;" edge="1" parent="1" source="Ap1rKkLuWlFSL0MGlEdP-86" target="Ap1rKkLuWlFSL0MGlEdP-83">
          <mxGeometry relative="1" as="geometry" />
        </mxCell>
        <mxCell id="Ap1rKkLuWlFSL0MGlEdP-86" value="&lt;span style=&quot;color: rgb(0, 0, 0); font-family: Helvetica; font-size: 12px; font-style: normal; font-variant-ligatures: normal; font-variant-caps: normal; font-weight: 400; letter-spacing: normal; orphans: 2; text-align: center; text-indent: 0px; text-transform: none; widows: 2; word-spacing: 0px; -webkit-text-stroke-width: 0px; white-space: normal; background-color: rgb(251, 251, 251); text-decoration-thickness: initial; text-decoration-style: initial; text-decoration-color: initial; display: inline !important; float: none;&quot;&gt;if total&amp;nbsp;&lt;/span&gt;&lt;div&gt;&lt;span style=&quot;color: rgb(0, 0, 0); font-family: Helvetica; font-size: 12px; font-style: normal; font-variant-ligatures: normal; font-variant-caps: normal; font-weight: 400; letter-spacing: normal; orphans: 2; text-align: center; text-indent: 0px; text-transform: none; widows: 2; word-spacing: 0px; -webkit-text-stroke-width: 0px; white-space: normal; background-color: rgb(251, 251, 251); text-decoration-thickness: initial; text-decoration-style: initial; text-decoration-color: initial; display: inline !important; float: none;&quot;&gt;energy&amp;nbsp;&lt;/span&gt;&lt;div&gt;&lt;span style=&quot;color: rgb(0, 0, 0); font-family: Helvetica; font-size: 12px; font-style: normal; font-variant-ligatures: normal; font-variant-caps: normal; font-weight: 400; letter-spacing: normal; orphans: 2; text-align: center; text-indent: 0px; text-transform: none; widows: 2; word-spacing: 0px; -webkit-text-stroke-width: 0px; white-space: normal; background-color: rgb(251, 251, 251); text-decoration-thickness: initial; text-decoration-style: initial; text-decoration-color: initial; display: inline !important; float: none;&quot;&gt;is&amp;nbsp;&lt;/span&gt;higher than&amp;nbsp;&lt;div style=&quot;forced-color-adjust: none; color: rgb(0, 0, 0); font-family: Helvetica; font-size: 12px; font-style: normal; font-variant-ligatures: normal; font-variant-caps: normal; font-weight: 400; letter-spacing: normal; orphans: 2; text-align: center; text-indent: 0px; text-transform: none; widows: 2; word-spacing: 0px; -webkit-text-stroke-width: 0px; white-space: normal; background-color: rgb(251, 251, 251); text-decoration-thickness: initial; text-decoration-style: initial; text-decoration-color: initial;&quot;&gt;demand&lt;/div&gt;&lt;br&gt;&lt;/div&gt;&lt;/div&gt;" style="rhombus;whiteSpace=wrap;html=1;strokeWidth=2;rounded=0;labelBackgroundColor=none;" vertex="1" parent="1">
          <mxGeometry x="359.77" y="2650" width="134.47" height="120" as="geometry" />
        </mxCell>
        <mxCell id="Ap1rKkLuWlFSL0MGlEdP-89" value="&lt;br&gt;&lt;span style=&quot;color: rgb(0, 0, 0); font-family: Helvetica; font-size: 12px; font-style: normal; font-variant-ligatures: normal; font-variant-caps: normal; font-weight: 400; letter-spacing: normal; orphans: 2; text-align: center; text-indent: 0px; text-transform: none; widows: 2; word-spacing: 0px; -webkit-text-stroke-width: 0px; white-space: normal; background-color: rgb(251, 251, 251); text-decoration-thickness: initial; text-decoration-style: initial; text-decoration-color: initial; display: inline !important; float: none;&quot;&gt;prompt the user to enter&lt;/span&gt;&lt;div&gt;&lt;span style=&quot;color: rgb(0, 0, 0); font-family: Helvetica; font-size: 12px; font-style: normal; font-variant-ligatures: normal; font-variant-caps: normal; font-weight: 400; letter-spacing: normal; orphans: 2; text-align: center; text-indent: 0px; text-transform: none; widows: 2; word-spacing: 0px; -webkit-text-stroke-width: 0px; white-space: normal; background-color: rgb(251, 251, 251); text-decoration-thickness: initial; text-decoration-style: initial; text-decoration-color: initial; display: inline !important; float: none;&quot;&gt;&amp;nbsp;a positive number&amp;nbsp;&lt;/span&gt;&lt;/div&gt;&lt;div&gt;&lt;span style=&quot;color: rgb(0, 0, 0); font-family: Helvetica; font-size: 12px; font-style: normal; font-variant-ligatures: normal; font-variant-caps: normal; font-weight: 400; letter-spacing: normal; orphans: 2; text-align: center; text-indent: 0px; text-transform: none; widows: 2; word-spacing: 0px; -webkit-text-stroke-width: 0px; white-space: normal; background-color: rgb(251, 251, 251); text-decoration-thickness: initial; text-decoration-style: initial; text-decoration-color: initial; display: inline !important; float: none;&quot;&gt;and return the answer&lt;/span&gt;&lt;br&gt;&lt;br&gt;&lt;/div&gt;" style="shape=parallelogram;perimeter=parallelogramPerimeter;whiteSpace=wrap;html=1;fixedSize=1;strokeWidth=2;rounded=0;labelBackgroundColor=none;" vertex="1" parent="1">
          <mxGeometry x="601.25" y="1596.25" width="179.5" height="71.25" as="geometry" />
        </mxCell>
        <mxCell id="Ap1rKkLuWlFSL0MGlEdP-95" value="" style="edgeStyle=orthogonalEdgeStyle;orthogonalLoop=1;jettySize=auto;html=1;rounded=0;labelBackgroundColor=none;fontColor=default;" edge="1" parent="1" source="Ap1rKkLuWlFSL0MGlEdP-93" target="Ap1rKkLuWlFSL0MGlEdP-89">
          <mxGeometry relative="1" as="geometry" />
        </mxCell>
        <mxCell id="Ap1rKkLuWlFSL0MGlEdP-96" value="" style="edgeStyle=orthogonalEdgeStyle;orthogonalLoop=1;jettySize=auto;html=1;rounded=0;labelBackgroundColor=none;fontColor=default;" edge="1" parent="1" source="Ap1rKkLuWlFSL0MGlEdP-93" target="Ap1rKkLuWlFSL0MGlEdP-25">
          <mxGeometry relative="1" as="geometry" />
        </mxCell>
        <mxCell id="Ap1rKkLuWlFSL0MGlEdP-97" value="" style="edgeStyle=orthogonalEdgeStyle;orthogonalLoop=1;jettySize=auto;html=1;rounded=0;labelBackgroundColor=none;fontColor=default;" edge="1" parent="1" source="Ap1rKkLuWlFSL0MGlEdP-93" target="Ap1rKkLuWlFSL0MGlEdP-29">
          <mxGeometry relative="1" as="geometry" />
        </mxCell>
        <mxCell id="Ap1rKkLuWlFSL0MGlEdP-93" value="&lt;span style=&quot;color: rgb(0, 0, 0); font-family: Helvetica; font-size: 12px; font-style: normal; font-variant-ligatures: normal; font-variant-caps: normal; font-weight: 400; letter-spacing: normal; orphans: 2; text-align: center; text-indent: 0px; text-transform: none; widows: 2; word-spacing: 0px; -webkit-text-stroke-width: 0px; white-space: normal; background-color: rgb(251, 251, 251); text-decoration-thickness: initial; text-decoration-style: initial; text-decoration-color: initial; display: inline !important; float: none;&quot;&gt;if the amount&amp;nbsp;&lt;/span&gt;&lt;div&gt;&lt;span style=&quot;color: rgb(0, 0, 0); font-family: Helvetica; font-size: 12px; font-style: normal; font-variant-ligatures: normal; font-variant-caps: normal; font-weight: 400; letter-spacing: normal; orphans: 2; text-align: center; text-indent: 0px; text-transform: none; widows: 2; word-spacing: 0px; -webkit-text-stroke-width: 0px; white-space: normal; background-color: rgb(251, 251, 251); text-decoration-thickness: initial; text-decoration-style: initial; text-decoration-color: initial; display: inline !important; float: none;&quot;&gt;entered is&amp;nbsp;&lt;/span&gt;&lt;/div&gt;&lt;div&gt;&lt;span style=&quot;color: rgb(0, 0, 0); font-family: Helvetica; font-size: 12px; font-style: normal; font-variant-ligatures: normal; font-variant-caps: normal; font-weight: 400; letter-spacing: normal; orphans: 2; text-align: center; text-indent: 0px; text-transform: none; widows: 2; word-spacing: 0px; -webkit-text-stroke-width: 0px; white-space: normal; background-color: rgb(251, 251, 251); text-decoration-thickness: initial; text-decoration-style: initial; text-decoration-color: initial; display: inline !important; float: none;&quot;&gt;below 0&lt;/span&gt;&lt;br&gt;&lt;/div&gt;" style="rhombus;whiteSpace=wrap;html=1;strokeWidth=2;rounded=0;labelBackgroundColor=none;" vertex="1" parent="1">
          <mxGeometry x="357" y="1576.88" width="135.25" height="110" as="geometry" />
        </mxCell>
        <mxCell id="Ap1rKkLuWlFSL0MGlEdP-99" value="" style="endArrow=classic;html=1;strokeColor=none;rounded=0;labelBackgroundColor=none;fontColor=default;" edge="1" parent="1">
          <mxGeometry width="50" height="50" relative="1" as="geometry">
            <mxPoint x="380" y="1870" as="sourcePoint" />
            <mxPoint x="430" y="1820" as="targetPoint" />
          </mxGeometry>
        </mxCell>
        <mxCell id="Ap1rKkLuWlFSL0MGlEdP-110" value="" style="edgeStyle=orthogonalEdgeStyle;rounded=0;orthogonalLoop=1;jettySize=auto;html=1;" edge="1" parent="1" source="Ap1rKkLuWlFSL0MGlEdP-107" target="Ap1rKkLuWlFSL0MGlEdP-109">
          <mxGeometry relative="1" as="geometry" />
        </mxCell>
        <mxCell id="Ap1rKkLuWlFSL0MGlEdP-107" value="&lt;br&gt;&lt;span style=&quot;color: rgb(0, 0, 0); font-family: Helvetica; font-size: 12px; font-style: normal; font-variant-ligatures: normal; font-variant-caps: normal; font-weight: 400; letter-spacing: normal; orphans: 2; text-align: center; text-indent: 0px; text-transform: none; widows: 2; word-spacing: 0px; -webkit-text-stroke-width: 0px; white-space: normal; background-color: rgb(251, 251, 251); text-decoration-thickness: initial; text-decoration-style: initial; text-decoration-color: initial; display: inline !important; float: none;&quot;&gt;if the amount&lt;/span&gt;&lt;div&gt;&lt;span style=&quot;color: rgb(0, 0, 0); font-family: Helvetica; font-size: 12px; font-style: normal; font-variant-ligatures: normal; font-variant-caps: normal; font-weight: 400; letter-spacing: normal; orphans: 2; text-align: center; text-indent: 0px; text-transform: none; widows: 2; word-spacing: 0px; -webkit-text-stroke-width: 0px; white-space: normal; background-color: rgb(251, 251, 251); text-decoration-thickness: initial; text-decoration-style: initial; text-decoration-color: initial; display: inline !important; float: none;&quot;&gt;entered is&lt;/span&gt;&lt;/div&gt;&lt;div&gt;below 0&lt;/div&gt;" style="rhombus;whiteSpace=wrap;html=1;strokeWidth=2;rounded=0;labelBackgroundColor=none;" vertex="1" parent="1">
          <mxGeometry x="360.81" y="1140" width="127.87" height="100" as="geometry" />
        </mxCell>
        <mxCell id="Ap1rKkLuWlFSL0MGlEdP-109" value="&lt;br&gt;&lt;span style=&quot;color: rgb(0, 0, 0); font-family: Helvetica; font-size: 12px; font-style: normal; font-variant-ligatures: normal; font-variant-caps: normal; font-weight: 400; letter-spacing: normal; orphans: 2; text-align: center; text-indent: 0px; text-transform: none; widows: 2; word-spacing: 0px; -webkit-text-stroke-width: 0px; white-space: normal; background-color: rgb(251, 251, 251); text-decoration-thickness: initial; text-decoration-style: initial; text-decoration-color: initial; display: inline !important; float: none;&quot;&gt;prompt the user to enter&amp;nbsp;&lt;/span&gt;&lt;div&gt;&lt;span style=&quot;color: rgb(0, 0, 0); font-family: Helvetica; font-size: 12px; font-style: normal; font-variant-ligatures: normal; font-variant-caps: normal; font-weight: 400; letter-spacing: normal; orphans: 2; text-align: center; text-indent: 0px; text-transform: none; widows: 2; word-spacing: 0px; -webkit-text-stroke-width: 0px; white-space: normal; background-color: rgb(251, 251, 251); text-decoration-thickness: initial; text-decoration-style: initial; text-decoration-color: initial; display: inline !important; float: none;&quot;&gt;a positive number and&amp;nbsp;&lt;/span&gt;&lt;/div&gt;&lt;div&gt;&lt;span style=&quot;color: rgb(0, 0, 0); font-family: Helvetica; font-size: 12px; font-style: normal; font-variant-ligatures: normal; font-variant-caps: normal; font-weight: 400; letter-spacing: normal; orphans: 2; text-align: center; text-indent: 0px; text-transform: none; widows: 2; word-spacing: 0px; -webkit-text-stroke-width: 0px; white-space: normal; background-color: rgb(251, 251, 251); text-decoration-thickness: initial; text-decoration-style: initial; text-decoration-color: initial; display: inline !important; float: none;&quot;&gt;return the answer&lt;/span&gt;&lt;br&gt;&lt;br&gt;&lt;/div&gt;" style="shape=parallelogram;perimeter=parallelogramPerimeter;whiteSpace=wrap;html=1;fixedSize=1;strokeWidth=2;rounded=0;labelBackgroundColor=none;" vertex="1" parent="1">
          <mxGeometry x="573.36" y="1150" width="207.39" height="80" as="geometry" />
        </mxCell>
        <mxCell id="Ap1rKkLuWlFSL0MGlEdP-112" value="&lt;br&gt;&lt;span style=&quot;color: rgb(0, 0, 0); font-family: Helvetica; font-size: 12px; font-style: normal; font-variant-ligatures: normal; font-variant-caps: normal; font-weight: 400; letter-spacing: normal; orphans: 2; text-align: center; text-indent: 0px; text-transform: none; widows: 2; word-spacing: 0px; -webkit-text-stroke-width: 0px; white-space: normal; background-color: rgb(251, 251, 251); text-decoration-thickness: initial; text-decoration-style: initial; text-decoration-color: initial; display: inline !important; float: none;&quot;&gt;prompt the user to enter&lt;/span&gt;&lt;div&gt;&lt;span style=&quot;color: rgb(0, 0, 0); font-family: Helvetica; font-size: 12px; font-style: normal; font-variant-ligatures: normal; font-variant-caps: normal; font-weight: 400; letter-spacing: normal; orphans: 2; text-align: center; text-indent: 0px; text-transform: none; widows: 2; word-spacing: 0px; -webkit-text-stroke-width: 0px; white-space: normal; background-color: rgb(251, 251, 251); text-decoration-thickness: initial; text-decoration-style: initial; text-decoration-color: initial; display: inline !important; float: none;&quot;&gt;a positive number and&lt;/span&gt;&lt;/div&gt;&lt;div&gt;&lt;span style=&quot;color: rgb(0, 0, 0); font-family: Helvetica; font-size: 12px; font-style: normal; font-variant-ligatures: normal; font-variant-caps: normal; font-weight: 400; letter-spacing: normal; orphans: 2; text-align: center; text-indent: 0px; text-transform: none; widows: 2; word-spacing: 0px; -webkit-text-stroke-width: 0px; white-space: normal; background-color: rgb(251, 251, 251); text-decoration-thickness: initial; text-decoration-style: initial; text-decoration-color: initial; display: inline !important; float: none;&quot;&gt;return the answer&lt;/span&gt;&lt;br&gt;&lt;br&gt;&lt;/div&gt;" style="shape=parallelogram;perimeter=parallelogramPerimeter;whiteSpace=wrap;html=1;fixedSize=1;strokeWidth=2;rounded=0;labelBackgroundColor=none;" vertex="1" parent="1">
          <mxGeometry x="30" y="1280" width="180" height="80" as="geometry" />
        </mxCell>
        <mxCell id="Ap1rKkLuWlFSL0MGlEdP-117" value="" style="edgeStyle=orthogonalEdgeStyle;rounded=0;orthogonalLoop=1;jettySize=auto;html=1;" edge="1" parent="1" source="Ap1rKkLuWlFSL0MGlEdP-114" target="Ap1rKkLuWlFSL0MGlEdP-116">
          <mxGeometry relative="1" as="geometry" />
        </mxCell>
        <mxCell id="Ap1rKkLuWlFSL0MGlEdP-114" value="display the energy statistics from each source, city demand and total energy produced" style="whiteSpace=wrap;html=1;strokeWidth=2;rounded=0;labelBackgroundColor=none;" vertex="1" parent="1">
          <mxGeometry x="335.5" y="3080" width="183" height="105" as="geometry" />
        </mxCell>
        <mxCell id="Ap1rKkLuWlFSL0MGlEdP-119" value="" style="edgeStyle=orthogonalEdgeStyle;rounded=0;orthogonalLoop=1;jettySize=auto;html=1;" edge="1" parent="1" source="Ap1rKkLuWlFSL0MGlEdP-116" target="Ap1rKkLuWlFSL0MGlEdP-118">
          <mxGeometry relative="1" as="geometry" />
        </mxCell>
        <mxCell id="Ap1rKkLuWlFSL0MGlEdP-116" value="create the GUI interface&amp;nbsp;" style="whiteSpace=wrap;html=1;strokeWidth=2;rounded=0;labelBackgroundColor=none;" vertex="1" parent="1">
          <mxGeometry x="350.08000000000004" y="3250" width="153.84" height="60" as="geometry" />
        </mxCell>
        <mxCell id="Ap1rKkLuWlFSL0MGlEdP-118" value="run the main loop of the program" style="whiteSpace=wrap;html=1;strokeWidth=2;rounded=0;labelBackgroundColor=none;" vertex="1" parent="1">
          <mxGeometry x="350.08" y="3360" width="154.5" height="60" as="geometry" />
        </mxCell>
      </root>
    </mxGraphModel>
  </diagram>
</mxfile>
